HIERARCHY
ROOT Hips
{
	OFFSET 0.00000 0.00000 0.00000
	CHANNELS 6 Xposition Yposition Zposition Zrotation Yrotation Xrotation 
	JOINT LHipJoint
	{
		OFFSET 0 0 0
		CHANNELS 3 Zrotation Yrotation Xrotation
		JOINT LeftUpLeg
		{
			OFFSET 1.56857 -1.73443 1.15205
			CHANNELS 3 Zrotation Yrotation Xrotation
			JOINT LeftLeg
			{
				OFFSET 2.39362 -6.57643 0.00000
				CHANNELS 3 Zrotation Yrotation Xrotation
				JOINT LeftFoot
				{
					OFFSET 2.50952 -6.89485 0.00000
					CHANNELS 3 Zrotation Yrotation Xrotation
					JOINT LeftToeBase
					{
						OFFSET 0.17171 -0.47178 1.88682
						CHANNELS 3 Zrotation Yrotation Xrotation
						End Site
						{
							OFFSET 0.00000 -0.00000 0.98146
						}
					}
				}
			}
		}
	}
	JOINT RHipJoint
	{
		OFFSET 0 0 0
		CHANNELS 3 Zrotation Yrotation Xrotation
		JOINT RightUpLeg
		{
			OFFSET -1.28153 -1.73443 1.15205
			CHANNELS 3 Zrotation Yrotation Xrotation
			JOINT RightLeg
			{
				OFFSET -2.26861 -6.23296 0.00000
				CHANNELS 3 Zrotation Yrotation Xrotation
				JOINT RightFoot
				{
					OFFSET -2.54143 -6.98254 0.00000
					CHANNELS 3 Zrotation Yrotation Xrotation
					JOINT RightToeBase
					{
						OFFSET -0.23309 -0.64041 1.93119
						CHANNELS 3 Zrotation Yrotation Xrotation
						End Site
						{
							OFFSET -0.00000 -0.00000 1.02013
						}
					}
				}
			}
		}
	}
	JOINT LowerBack
	{
		OFFSET 0 0 0
		CHANNELS 3 Zrotation Yrotation Xrotation
		JOINT Spine
		{
			OFFSET -0.07096 2.10460 -0.27878
			CHANNELS 3 Zrotation Yrotation Xrotation
			JOINT Spine1
			{
				OFFSET -0.00826 2.13662 -0.08279
				CHANNELS 3 Zrotation Yrotation Xrotation
				JOINT Neck
				{
					OFFSET 0 0 0
					CHANNELS 3 Zrotation Yrotation Xrotation
					JOINT Neck1
					{
						OFFSET 0.03239 1.77799 0.24435
						CHANNELS 3 Zrotation Yrotation Xrotation
						JOINT Head
						{
							OFFSET 0.01026 1.74194 -0.49664
							CHANNELS 3 Zrotation Yrotation Xrotation
							End Site
							{
								OFFSET 0.00170 1.83057 -0.19653
							}
						}
					}
				}
				JOINT LeftShoulder
				{
					OFFSET 0 0 0
					CHANNELS 3 Zrotation Yrotation Xrotation
					JOINT LeftArm
					{
						OFFSET 3.19178 1.35907 -0.31412
						CHANNELS 3 Zrotation Yrotation Xrotation
						JOINT LeftForeArm
						{
							OFFSET 4.85247 -0.00000 -0.00000
							CHANNELS 3 Zrotation Yrotation Xrotation
							JOINT LeftHand
							{
								OFFSET 3.55584 -0.00000 0.00000
								CHANNELS 3 Zrotation Yrotation Xrotation
								JOINT LeftFingerBase
								{
									OFFSET 0 0 0
									CHANNELS 3 Zrotation Yrotation Xrotation
									JOINT LeftHandIndex1
									{
										OFFSET 0.69320 -0.00000 0.00000
										CHANNELS 3 Zrotation Yrotation Xrotation
										End Site
										{
											OFFSET 0.55888 -0.00000 0.00000
										}
									}
								}
								JOINT LThumb
								{
									OFFSET 0 0 0
									CHANNELS 3 Zrotation Yrotation Xrotation
									End Site
									{
										OFFSET 0.56741 -0.00000 0.56741
									}
								}
							}
						}
					}
				}
				JOINT RightShoulder
				{
					OFFSET 0 0 0
					CHANNELS 3 Zrotation Yrotation Xrotation
					JOINT RightArm
					{
						OFFSET -3.28999 1.24191 -0.26899
						CHANNELS 3 Zrotation Yrotation Xrotation
						JOINT RightForeArm
						{
							OFFSET -4.64462 -0.00000 0.00000
							CHANNELS 3 Zrotation Yrotation Xrotation
							JOINT RightHand
							{
								OFFSET -3.40703 -0.00000 0.00000
								CHANNELS 3 Zrotation Yrotation Xrotation
								JOINT RightFingerBase
								{
									OFFSET 0 0 0
									CHANNELS 3 Zrotation Yrotation Xrotation
									JOINT RightHandIndex1
									{
										OFFSET -0.61958 -0.00000 0.00000
										CHANNELS 3 Zrotation Yrotation Xrotation
										End Site
										{
											OFFSET -0.49952 -0.00000 0.00000
										}
									}
								}
								JOINT RThumb
								{
									OFFSET 0 0 0
									CHANNELS 3 Zrotation Yrotation Xrotation
									End Site
									{
										OFFSET -0.50715 -0.00000 0.50715
									}
								}
							}
						}
					}
				}
			}
		}
	}
}
MOTION
Frames: 12
Frame Time: 0.0454545
0.00 0.00 0.00 0 0 0 0 0 0 -21 0 0 0 0 0 0 0 0 0 0 0 0 0 0 21 0 0 0 0 0 0 0 0 0 0 0 0 0 0 0 0 0 0 0 0 0 0 -16 0 0 21 0 0 11 0 0 0 -8 0 0 0 0 0 0 0 0 0 0 0 0 0 0 0 0 0 0 0 0 8 0 0 0 0 0 0 0 0 0 0 0 0 0 0 0 0 0
0.00 0.00 0.00 87.9421 87.3723 82.0814 0.0000 0.0000 0.0000 -9.5424 2.2366 10.3675 0.2938 3.4856 9.6338 0.6083 2.4041 -15.7999 0.9121 -6.0855 -17.0328 0.0000 0.0000 0.0000 17.4702 -8.1011 10.0856 -0.2062 -2.9238 8.0668 -1.3223 1.2923 -21.3587 -0.3089 -3.5729 9.8781 -0.4570 0.2319 5.9801 1.1257 0.3812 3.7193 1.3919 0.2116 0.4640 3.1584 -0.1679 -21.0966 1.9701 -1.4814 33.0717 0.0704 0.3441 15.0849 -0.0000 -0.0000 0.0000 -0.0000 0.0000 -0.0000 -0.0000 0.0000 -0.0000 -0.0000 0.0000 0.0000 -0.0000 -0.0000 0.0000 -0.0000 -0.0000 0.0000 -0.0000 0.0000 0.0000 -0.0000 -0.0000 0.0000 85.8289 -1.8034 34.3668 -16.0752 25.6225 -3.6784 0.0000 0.0000 6.3636 -11.5380 -32.1650 6.2024 7.1250 -0.0000 -0.0000 24.0861 -61.0432 -9.7345
0.00 0.00 0.00 -12.3755 108.9960 -12.2087 0.0000 0.0000 0.0000 -36.1880 10.5467 5.0261 0.4329 4.2223 11.7030 1.2146 -7.2316 -19.6901 0.3246 3.6619 10.1274 0.0000 0.0000 0.0000 19.7039 -4.8212 -22.6597 -1.9781 -8.8204 25.2351 -0.9083 8.5696 -17.1487 -1.0007 6.3658 -17.8496 -10.9247 -1.2060 10.7160 -0.5099 -2.1908 6.2950 5.8039 -1.2447 1.0906 6.0269 3.4968 -21.3468 -3.5355 4.8302 31.3783 -1.5225 2.5158 14.6671 -0.0000 -0.0000 0.0000 -69.4261 -9.4959 39.1755 47.8376 -52.0853 -24.4576 -0.0000 0.0000 -3.1924 26.3302 -22.5923 -10.7647 -7.1250 0.0000 -0.0000 -1.6392 5.0845 1.4881 -0.0000 -0.0000 0.0000 75.1781 -11.4047 23.3372 -25.2636 36.4722 -8.4461 0.0000 -0.0000 -2.2205 -9.0622 -30.8757 4.6793 7.1250 -0.0000 -0.0000 25.5369 -59.3075 -9.2984
0.00 0.00 0.00 -10.1267 115.0430 -7.9829 0.0000 0.0000 0.0000 -36.7736 14.7400 -1.6209 1.9958 8.8573 25.3499 -0.6508 -18.7424 -6.3232 0.6143 5.0162 13.9547 0.0000 0.0000 0.0000 19.0693 -2.9388 -24.4441 -2.6142 -10.0426 29.1148 -1.1991 0.1833 -20.6508 -0.6481 -5.1500 14.3369 -7.5910 -2.0030 12.3933 -0.1759 -2.9611 7.0198 4.4084 -1.5121 0.8735 4.6464 2.2617 -21.0606 -3.2550 3.4848 31.2751 -1.4238 1.8324 14.4291 0.0000 0.0000 0.0000 -75.8732 -8.8978 50.2948 40.9402 -48.6171 -19.1417 -0.0000 -0.0000 0.8474 23.5740 -24.8784 -10.4019 -7.1250 0.0000 -0.0000 -3.6167 3.1889 3.4168 0.0000 0.0000 0.0000 73.8469 -13.5755 23.2897 -29.8513 40.7656 -11.3124 0.0000 -0.0000 -4.1067 -8.1393 -32.1972 4.3579 7.1250 -0.0000 -0.0000 27.6293 -60.2614 -10.7689
0.00 0.00 0.00 -5.6108 115.9560 -3.8858 0.0000 0.0000 0.0000 -32.4187 17.2903 -7.7386 4.0018 12.1627 36.3101 -1.2757 -19.7495 10.8196 0.8503 5.8810 16.4396 0.0000 0.0000 0.0000 19.2035 -1.8898 -23.5221 -2.7297 -10.2442 29.7710 -1.1748 -2.3714 -21.4550 -0.8743 -5.9612 16.6720 -4.1589 -1.9097 13.8324 0.5534 -2.4324 7.7185 3.2310 -1.1265 0.6096 3.7678 1.4301 -21.2396 -2.5593 2.3521 31.3511 -1.1964 1.3453 14.4173 -0.0000 -0.0000 0.0000 -79.0013 -5.8086 48.8818 36.4488 -45.8194 -15.8435 -0.0000 -0.0000 1.4055 24.7771 -24.0897 -10.6695 -7.1250 0.0000 -0.0000 -2.7850 3.7892 2.5980 -0.0000 -0.0000 0.0000 72.8122 -11.9257 23.5231 -30.1954 41.0603 -11.5378 0.0000 -0.0000 -3.7246 -10.1312 -31.3044 5.3044 7.1250 -0.0000 -0.0000 24.8022 -59.9363 -9.3862
0.00 0.00 0.00 -2.0409 117.3980 -0.6065 0.0000 0.0000 0.0000 -26.7139 16.7002 -15.1218 7.2783 15.5619 49.9193 -0.7999 -17.1056 -1.1764 0.8962 -6.0336 -16.8821 0.0000 0.0000 0.0000 19.5538 -0.5227 -20.8834 -2.4852 -9.8110 28.3668 -1.0946 -4.8973 -22.1004 -1.1748 -6.8796 19.3591 -2.8094 -1.3867 15.2040 1.0523 -1.5037 8.2786 2.9036 -0.5890 0.3639 3.2947 0.4341 -20.8843 -1.0427 0.6042 31.5557 -0.8139 0.7826 14.3508 0.0000 0.0000 0.0000 -79.9804 -1.6416 45.2620 29.8172 -40.7362 -11.2901 -0.0000 -0.0000 1.5774 24.7710 -22.7217 -10.1062 -7.1250 0.0000 -0.0000 -2.6254 5.2433 2.3770 0.0000 0.0000 0.0000 73.2414 -9.3948 23.4365 -31.0820 41.8029 -12.1244 0.0000 -0.0000 -2.2844 -13.5422 -31.9766 7.2689 7.1250 -0.0000 -0.0000 21.8009 -61.3599 -8.9217
0.00 0.00 0.00 5.0605 118.7890 6.2796 0.0000 0.0000 0.0000 -10.0953 8.1415 -21.7570 7.1884 15.4885 49.5833 1.0061 2.2698 -19.8939 0.4122 -4.1213 -11.4182 0.0000 0.0000 0.0000 20.0045 -3.2125 -14.5097 -1.4161 -7.5260 21.2833 -1.0607 -4.3004 -21.4535 -1.5505 -7.8592 22.2872 -0.3712 -0.3091 16.0763 0.9474 0.2702 8.3626 1.1580 0.4009 -0.1399 3.0604 -0.5094 -20.8531 -0.0367 -0.9593 31.9589 -0.6413 0.2676 14.4908 -0.0000 0.0000 0.0000 -77.6004 6.0859 29.8776 17.9790 -28.1302 -4.5393 -0.0000 -0.0000 8.9591 19.8019 -20.1360 -7.0658 -7.1250 0.0000 -0.0000 -5.5321 8.7692 4.6463 -0.0000 0.0000 0.0000 74.8900 -6.7933 27.9500 -38.2724 47.0124 -17.1645 0.0000 -0.0000 -4.4097 -17.8225 -33.5785 10.0826 7.1250 -0.0000 -0.0000 18.5270 -63.9457 -8.6527
0.00 0.00 0.00 3.5307 117.0130 5.6358 0.0000 0.0000 0.0000 -4.1034 5.5967 -18.5416 3.3474 11.2373 33.0844 0.4602 11.4321 -21.5880 0.0640 1.6323 4.4906 0.0000 0.0000 0.0000 16.9309 -3.1127 -10.7008 -0.9394 -6.1733 17.2880 -1.0012 -4.1109 -20.8096 -1.3274 -7.2961 20.5957 -2.2339 0.9223 15.1249 -0.4505 1.5524 7.9680 0.5581 0.9859 -0.0835 2.8037 -0.7651 -20.8415 0.7040 -1.5416 31.2516 -0.4037 0.0674 14.1762 -0.0000 0.0000 0.0000 -75.3782 11.6571 19.0421 15.1342 -24.3328 -3.2811 -0.0000 -0.0000 10.0882 21.9509 -18.8900 -7.4341 -7.1250 0.0000 -0.0000 -4.0521 9.7699 3.3143 -0.0000 0.0000 0.0000 75.6346 -6.5999 32.5088 -45.3503 50.9390 -22.5105 0.0000 -0.0000 -7.7443 -18.2925 -32.9629 10.1964 7.1250 -0.0000 -0.0000 17.4410 -63.4904 -7.9442
0.00 0.00 0.00 5.5144 113.8110 6.9073 0.0000 0.0000 0.0000 -2.4231 6.8433 -12.0893 2.1422 9.1562 26.2851 0.4776 8.7203 -19.0285 0.6173 -5.0282 -13.9891 0.0000 0.0000 0.0000 11.1878 -2.1694 -4.4228 -0.7985 -5.7036 15.9267 -1.0001 -4.2889 -20.9024 -0.9554 -6.2244 17.4368 -4.6380 1.4526 14.2881 -1.8953 1.9188 7.6085 0.3626 1.1157 -0.0306 3.0464 -0.6585 -19.5066 -0.1133 -1.2049 29.9348 -0.7109 0.0685 13.3126 0.0000 -0.0000 0.0000 -74.5316 12.0670 -14.9531 7.8645 -13.3330 -0.9206 -0.0000 -0.0000 26.8914 23.5024 -16.7258 -7.1335 -7.1250 0.0000 -0.0000 -2.8687 11.8537 2.2211 0.0000 -0.0000 0.0000 77.1317 -6.3221 39.6223 -57.0879 55.4827 -31.9296 0.0000 -0.0000 -5.5724 -24.4296 -33.5806 14.1034 7.1250 -0.0000 -0.0000 10.7126 -65.7817 -5.4029
0.00 0.00 0.00 7.2111 114.0230 6.9974 0.0000 0.0000 0.0000 -3.4070 6.2876 3.6131 6.2682 14.6833 46.0487 -0.0801 5.3796 0.1205 0.0003 0.1091 0.2999 0.0000 0.0000 0.0000 29.2111 -8.9831 -3.4562 -0.4106 -4.1136 11.3964 -0.7660 3.7243 -15.6963 -2.2769 -9.4205 27.1196 -6.5822 0.3071 7.5187 -3.1651 0.2727 4.5187 0.4004 0.1684 0.4754 -3.2571 -3.5449 -21.0578 4.3935 -4.8871 26.4993 1.4310 -1.7640 12.4911 -0.0000 -0.0000 0.0000 -76.2937 -7.2480 34.6654 21.2572 -32.1274 -6.1862 -0.0000 -0.0000 2.1386 24.4304 -26.2235 -11.3499 -7.1250 0.0000 -0.0000 -3.2682 1.6065 3.1805 -0.0000 -0.0000 0.0000 76.8810 -11.9824 34.6624 -35.2178 44.9670 -14.9671 0.0000 -0.0000 -0.9380 -22.4493 -32.9800 12.6755 7.1250 -0.0000 -0.0000 12.6265 -64.6311 -6.0449
0.00 0.00 0.00 10.8305 107.0690 9.9835 0.0000 0.0000 0.0000 -4.3050 8.1811 -3.4893 7.8687 16.0218 52.0883 0.0743 2.9661 -7.1086 0.0132 0.7416 2.0382 0.0000 0.0000 0.0000 29.2984 -6.8726 3.1099 -0.3702 -3.9084 10.8190 -0.9951 7.0772 -17.8119 -1.6967 -8.2035 23.3339 -3.8854 1.2609 6.2384 -2.5441 1.6233 3.5647 -0.5364 0.8483 0.1520 -2.0955 -3.4106 -20.2070 4.4377 -5.1093 25.8438 1.2182 -1.7624 12.0397 -0.0000 0.0000 0.0000 -80.2701 1.6849 1.7803 7.9529 -13.4765 -0.9411 -0.0000 -0.0000 35.0980 14.4953 -22.9737 -5.7620 -7.1250 0.0000 -0.0000 -9.0601 6.5779 8.0666 -0.0000 0.0000 0.0000 73.1404 -4.0344 38.3961 -43.3154 49.9160 -20.9417 0.0000 0.0000 0.3624 -25.0095 -33.4369 14.4160 7.1250 -0.0000 -0.0000 9.8739 -65.8051 -4.9814
0.00 0.00 0.00 122.3730 95.6546 124.0170 0.0000 0.0000 0.0000 -11.9429 -3.9421 -21.5898 3.4065 11.3258 33.3865 0.7896 2.3700 -17.8041 0.0000 0.0421 0.1156 0.0000 0.0000 0.0000 23.4509 -1.1126 12.7047 -2.2489 -9.3664 26.9483 0.0533 13.9967 -9.1774 -0.1524 -2.5153 6.9321 -0.7255 3.3154 9.1460 -2.5714 4.4995 4.6235 -2.6532 2.3467 -0.1644 -0.1328 -3.2031 -20.0116 1.5990 -4.5580 30.7544 -0.0877 -1.5456 13.8471 0.0000 0.0000 0.0000 -79.2913 8.7712 8.0461 10.9654 -18.2352 -1.7651 -0.0000 -0.0000 31.7889 10.5872 -24.7765 -4.4789 -7.1250 0.0000 -0.0000 -11.5418 5.2534 10.6600 0.0000 0.0000 0.0000 79.7939 2.1291 48.1966 -37.5181 46.5288 -16.6150 0.0000 0.0000 5.7321 -13.1813 -32.5132 7.1748 7.1250 -0.0000 -0.0000 22.6572 -61.7615 -9.5085
